<?xml version="1.0" encoding="utf-8"?>
<!-- Generator: Adobe Illustrator 25.2.3, SVG Export Plug-In . SVG Version: 6.00 Build 0)  -->
<svg version="1.1" id="Layer_1" xmlns="http://www.w3.org/2000/svg" xmlns:xlink="http://www.w3.org/1999/xlink" x="0px" y="0px"
	 viewBox="0 0 1000 1000" style="enable-background:new 0 0 1000 1000;" xml:space="preserve">
<style type="text/css">
	path {
        fill: black;
        }
    @media (prefers-color-scheme: dark) {
    path {
        fill: white;
        }
    }
</style>
<g>
	<path class="st0" d="M0,530.4c1.2-9.5,2.1-19,3.6-28.4c2.9-18.6,8.1-36.6,15.1-54c9.1-22.6,21.2-43.4,36.1-62.6
		c8.3-10.6,17.3-20.5,27.1-29.7c10.8-10.2,22.4-19.4,34.8-27.5c22.5-14.6,46.6-25.5,72.6-32.3c10.7-2.8,21.5-4.9,32.4-6.3
		c5.9-0.7,11.8-1,17.7-1.4c5-0.3,10.1-0.4,15.1-0.4c8.7-0.1,17.3,0.7,25.9,1.5c9.7,0.9,19.3,2.4,28.9,4.2
		c16.8,3.2,33.2,7.8,49.1,13.8c22.3,8.4,43.3,19.5,62.9,33.2c9.8,6.8,19.2,14.2,28,22.3c5.1,4.7,10.3,9.3,15.1,14.2
		c13.6,13.9,26.2,28.7,37.2,44.8c8.6,12.7,16.9,25.7,25,38.9c17.7,28.8,35.2,57.8,52.8,86.8c14.3,23.7,28.6,47.5,42.9,71.3
		c21.3,35.4,42.7,70.9,64,106.3c3.5,5.7,7.2,11.3,10.8,17c1.9,3,3.6,2.9,5.5-0.1c0.3-0.5,0.6-1,0.9-1.5c2.4-4.1,4.7-8.2,7.1-12.3
		c9.5-16.4,19-32.8,28.6-49.1c13.9-24,27.9-47.9,41.8-71.9c14.7-25.3,29.4-50.7,44.1-76c11.4-19.6,22.9-39.2,34.3-58.8
		c1.7-3,3.4-6,5.4-8.9c1.9-2.6,4-5.1,6.2-7.5c2.1-2.2,4.9-3.2,8-3.2c14.3,0,28.7,0,43-0.1c9.4-0.1,18.8-0.4,28.1-0.4
		c12,0,23.9,0.4,35.8,0.3c2.7,0,4,1.6,3,4.5c-0.3,0.9-0.9,1.8-1.4,2.6c-12.4,21.4-24.7,42.7-37.1,64c-11.9,20.6-23.9,41.1-35.8,61.7
		c-11.2,19.4-22.4,38.8-33.7,58.2c-11.9,20.6-23.9,41.1-35.8,61.7c-10.5,18.1-20.9,36.2-31.4,54.3c-10.9,18.9-21.9,37.7-32.8,56.6
		c-10.1,17.4-20.2,34.9-30.2,52.3c-10.3,17.8-20.7,35.7-31.1,53.5c-5.6,9.7-11.2,19.5-16.8,29.3c-0.4,0.7-0.8,1.3-1.3,2
		c-1.9,3-3.8,3-5.8,0c-1.8-2.7-3.6-5.4-5.3-8.2c-10.5-18-21-36-31.5-54c-10.9-18.8-21.9-37.5-32.8-56.3
		c-11.7-20-23.3-40.1-34.9-60.2c-8.6-14.8-17.3-29.7-25.9-44.5c-11.8-20.2-23.5-40.4-35.3-60.6c-11.1-19-22.2-38-33.4-57
		c-12.5-21.3-24.9-42.6-37.6-63.8c-12.4-20.7-26.4-40.3-42.1-58.6c-8-9.4-16.5-18.3-25.5-26.9c-10.6-10.2-22-19.5-34-28.1
		c-10.8-7.8-21.9-15.1-33.7-21.4c-14.9-8-30.5-13.7-47.2-16.5c-11.3-1.9-22.6-2.3-33.9-1.5c-16.4,1.2-32.2,5.4-47.2,12.2
		c-14.2,6.4-27.1,15-38.7,25.4c-16.3,14.7-28.8,32.1-37.5,52.3c-5.5,12.8-9,26.1-10.8,39.8c-0.5,4.2-0.4,8.5-0.9,12.7
		c-0.7,5.4-0.1,10.8,0.3,16.2c0.9,14.2,4.1,27.9,9,41.1c6.1,16.2,14.8,31,26.1,44.1c17,19.7,37.6,34.1,62.1,43
		c12,4.4,24.3,7.4,37.1,8.2c7.4,0.4,14.8,0.9,22.2,0.4c18.7-1.2,36.7-5.6,53.9-13.3c14.2-6.4,27-14.9,38.4-25.3
		c11.8-10.8,21.6-23.3,29.3-37.3c7.4-13.3,12.6-27.4,16.1-42.2c0.8-3.3,1.7-6.5,2.3-9.8c0.3-1.6,1.1-2.6,2.6-2.9
		c1.5-0.3,2.4,0.6,3.2,1.7c3.7,5.6,7.4,11.2,11,16.9c5.8,8.9,11.5,17.7,17.2,26.6c12.1,19.1,24.2,38.2,36.3,57.2
		c1,1.6,1.2,3.3,1,5.1c-0.5,4.4-2.1,8.4-4.4,12.1c-5.9,9.3-12.7,18.1-19.6,26.7c-7.5,9.3-15.8,18-24.4,26.2
		c-15.8,14.9-33.2,27.6-52.4,37.9c-19.5,10.4-40.1,17.9-61.7,22.3c-8.3,1.7-16.7,2.7-25.1,3.8c-5.9,0.7-11.8,0.9-17.7,1.2
		c-5.4,0.3-10.9,0.6-16.3,0.4c-8-0.3-15.9-0.8-23.8-1.6c-7.7-0.8-15.4-1.8-23.1-3c-16.1-2.6-31.7-6.8-47-12.5
		c-18.2-6.8-35.3-15.6-51.3-26.7c-9.9-6.9-19.2-14.5-27.9-22.9c-19.5-18.7-35.2-40.2-48-63.9c-8.6-15.8-15.8-32.2-21.3-49.4
		c-4.6-14.4-7.9-29.1-9.8-44.1c-0.5-4.3-0.8-8.6-1.3-12.9c-0.2-2-0.6-4-1-6.1C0,547.1,0,538.7,0,530.4z"/>
	<path class="st0" d="M505.6,44.4c2.6,0.9,5.3,1.9,6.6,4.6c0.8,1.7,1.1,3.5,1.6,5.3c0.1,0.5,0,1,0,1.5c0,94.1,0,188.3,0,282.4
		c0,2.8-0.4,5.5-2.3,7.8c-3.9,4.7-11.6,4.7-15.7,0.2c-4.9-5.4-10-10.7-15.1-15.9c-10.8-11.1-23.1-20.3-36.3-28.3
		c-9.3-5.6-18.5-11.4-27.6-17.2c-4.7-3-8.8-6.7-11.7-11.6c-1.2-2-1.9-4.1-1.9-6.4c-0.1-11.6-0.3-23.1-0.3-34.7
		c-0.1-16.2,0-32.4,0-48.6c-0.1-41.4-0.1-82.9-0.2-124.3c0-1.7,0.2-3.4,0.2-5c0.1-4.9,2.1-8.3,7.1-9.6
		C441.9,44.4,473.8,44.4,505.6,44.4z"/>
</g>
</svg>
